<mxfile host="app.diagrams.net" agent="Mozilla/5.0 (Windows NT 10.0; Win64; x64) AppleWebKit/537.36 (KHTML, like Gecko) Chrome/131.0.0.0 Safari/537.36" version="24.9.0">
  <diagram name="Page-1" id="aZouzwrpQX-t-7sOcDAF">
    <mxGraphModel dx="965" dy="510" grid="1" gridSize="10" guides="1" tooltips="1" connect="1" arrows="1" fold="1" page="1" pageScale="1" pageWidth="850" pageHeight="1100" math="0" shadow="0">
      <root>
        <mxCell id="0" />
        <mxCell id="1" parent="0" />
        <mxCell id="g9x9GZ3jb0hfpX3rgkbn-3" value="" style="edgeStyle=orthogonalEdgeStyle;rounded=0;orthogonalLoop=1;jettySize=auto;html=1;" edge="1" parent="1" source="g9x9GZ3jb0hfpX3rgkbn-1" target="g9x9GZ3jb0hfpX3rgkbn-2">
          <mxGeometry relative="1" as="geometry" />
        </mxCell>
        <mxCell id="g9x9GZ3jb0hfpX3rgkbn-1" value="start" style="strokeWidth=2;html=1;shape=mxgraph.flowchart.start_1;whiteSpace=wrap;" vertex="1" parent="1">
          <mxGeometry x="375" y="80" width="100" height="60" as="geometry" />
        </mxCell>
        <mxCell id="g9x9GZ3jb0hfpX3rgkbn-5" value="" style="edgeStyle=orthogonalEdgeStyle;rounded=0;orthogonalLoop=1;jettySize=auto;html=1;" edge="1" parent="1" source="g9x9GZ3jb0hfpX3rgkbn-2" target="g9x9GZ3jb0hfpX3rgkbn-4">
          <mxGeometry relative="1" as="geometry" />
        </mxCell>
        <mxCell id="g9x9GZ3jb0hfpX3rgkbn-2" value="กำหนดตัวแปรรับ้อมูล รัหัสประจำตัวพนักงาน 10 ตำแหน่ง&lt;div&gt;จำนวนชั่วโมงทำงาน รายนได้ต่อชั่วโมง&amp;nbsp;&lt;/div&gt;&lt;div&gt;และผลลัพธ์ต่อชั่วโมง&lt;/div&gt;" style="whiteSpace=wrap;html=1;strokeWidth=2;" vertex="1" parent="1">
          <mxGeometry x="310" y="190" width="230" height="100" as="geometry" />
        </mxCell>
        <mxCell id="g9x9GZ3jb0hfpX3rgkbn-7" value="" style="edgeStyle=orthogonalEdgeStyle;rounded=0;orthogonalLoop=1;jettySize=auto;html=1;" edge="1" parent="1" source="g9x9GZ3jb0hfpX3rgkbn-4" target="g9x9GZ3jb0hfpX3rgkbn-6">
          <mxGeometry relative="1" as="geometry" />
        </mxCell>
        <mxCell id="g9x9GZ3jb0hfpX3rgkbn-4" value="ป้อนรหัสประจำตัวพนักงานรปแบบ&lt;br&gt;charector" style="shape=parallelogram;perimeter=parallelogramPerimeter;whiteSpace=wrap;html=1;fixedSize=1;strokeWidth=2;" vertex="1" parent="1">
          <mxGeometry x="330" y="350" width="190" height="90" as="geometry" />
        </mxCell>
        <mxCell id="g9x9GZ3jb0hfpX3rgkbn-9" value="" style="edgeStyle=orthogonalEdgeStyle;rounded=0;orthogonalLoop=1;jettySize=auto;html=1;" edge="1" parent="1" source="g9x9GZ3jb0hfpX3rgkbn-6" target="g9x9GZ3jb0hfpX3rgkbn-8">
          <mxGeometry relative="1" as="geometry" />
        </mxCell>
        <mxCell id="g9x9GZ3jb0hfpX3rgkbn-6" value="ป้อนค่าว่าทำงานกี่ชั่วโมง" style="shape=parallelogram;perimeter=parallelogramPerimeter;whiteSpace=wrap;html=1;fixedSize=1;strokeWidth=2;" vertex="1" parent="1">
          <mxGeometry x="330" y="490" width="190" height="90" as="geometry" />
        </mxCell>
        <mxCell id="g9x9GZ3jb0hfpX3rgkbn-11" value="" style="edgeStyle=orthogonalEdgeStyle;rounded=0;orthogonalLoop=1;jettySize=auto;html=1;" edge="1" parent="1" source="g9x9GZ3jb0hfpX3rgkbn-8" target="g9x9GZ3jb0hfpX3rgkbn-10">
          <mxGeometry relative="1" as="geometry" />
        </mxCell>
        <mxCell id="g9x9GZ3jb0hfpX3rgkbn-8" value="ป้อนค่าจำนวนเงินที่าได้ต่อชั่าวโมง" style="shape=parallelogram;perimeter=parallelogramPerimeter;whiteSpace=wrap;html=1;fixedSize=1;strokeWidth=2;" vertex="1" parent="1">
          <mxGeometry x="330" y="630" width="190" height="90" as="geometry" />
        </mxCell>
        <mxCell id="g9x9GZ3jb0hfpX3rgkbn-13" value="" style="edgeStyle=orthogonalEdgeStyle;rounded=0;orthogonalLoop=1;jettySize=auto;html=1;" edge="1" parent="1" source="g9x9GZ3jb0hfpX3rgkbn-10" target="g9x9GZ3jb0hfpX3rgkbn-12">
          <mxGeometry relative="1" as="geometry" />
        </mxCell>
        <mxCell id="g9x9GZ3jb0hfpX3rgkbn-10" value="สูตรคำนวนเงินที่ได้ทั้งหมดคือ&lt;div&gt;ผลลัพธ์ เท่ากับ ชั่วโมง คูณ จำนวนเงินที่ได้ต่อชั่วโมง&lt;/div&gt;" style="whiteSpace=wrap;html=1;strokeWidth=2;" vertex="1" parent="1">
          <mxGeometry x="330" y="780" width="190" height="60" as="geometry" />
        </mxCell>
        <mxCell id="g9x9GZ3jb0hfpX3rgkbn-18" value="" style="edgeStyle=orthogonalEdgeStyle;rounded=0;orthogonalLoop=1;jettySize=auto;html=1;" edge="1" parent="1" source="g9x9GZ3jb0hfpX3rgkbn-12" target="g9x9GZ3jb0hfpX3rgkbn-17">
          <mxGeometry relative="1" as="geometry" />
        </mxCell>
        <mxCell id="g9x9GZ3jb0hfpX3rgkbn-12" value="จะได้ผลลัพธ์ จำนวนเงินทั้งหมด" style="shape=parallelogram;perimeter=parallelogramPerimeter;whiteSpace=wrap;html=1;fixedSize=1;strokeWidth=2;" vertex="1" parent="1">
          <mxGeometry x="330" y="910" width="190" height="80" as="geometry" />
        </mxCell>
        <mxCell id="g9x9GZ3jb0hfpX3rgkbn-20" value="" style="edgeStyle=orthogonalEdgeStyle;rounded=0;orthogonalLoop=1;jettySize=auto;html=1;" edge="1" parent="1" source="g9x9GZ3jb0hfpX3rgkbn-17" target="g9x9GZ3jb0hfpX3rgkbn-19">
          <mxGeometry relative="1" as="geometry" />
        </mxCell>
        <mxCell id="g9x9GZ3jb0hfpX3rgkbn-17" value="รหัสพนักงาน" style="shape=parallelogram;perimeter=parallelogramPerimeter;whiteSpace=wrap;html=1;fixedSize=1;strokeWidth=2;" vertex="1" parent="1">
          <mxGeometry x="330" y="1040" width="190" height="80" as="geometry" />
        </mxCell>
        <mxCell id="g9x9GZ3jb0hfpX3rgkbn-19" value="end" style="strokeWidth=2;html=1;shape=mxgraph.flowchart.start_1;whiteSpace=wrap;" vertex="1" parent="1">
          <mxGeometry x="375" y="1180" width="100" height="60" as="geometry" />
        </mxCell>
      </root>
    </mxGraphModel>
  </diagram>
</mxfile>
